<svg aria-hidden="true" style="position: absolute; width: 0; height: 0; overflow: hidden;" version="1.1" xmlns="http://www.w3.org/2000/svg" xmlns:xlink="http://www.w3.org/1999/xlink">
<defs>
<symbol id="frm_views_calendar_icon" viewBox="0 0 14 16" fill="none">
    <title>calendar</title>
    <path d="M.375 6h13.25c.206 0 .375.169.375.375V14.5a1.5 1.5 0 01-1.5 1.5h-11A1.5 1.5 0 010 14.5V6.375C0 6.169.169 6 .375 6zM14 4.625V3.5A1.5 1.5 0 0012.5 2H11V.375A.376.376 0 0010.625 0h-1.25A.376.376 0 009 .375V2H5V.375A.376.376 0 004.625 0h-1.25A.376.376 0 003 .375V2H1.5A1.5 1.5 0 000 3.5v1.125C0 4.831.169 5 .375 5h13.25A.376.376 0 0014 4.625z" fill="#fff"/>
</symbol>
<symbol id="frm_views_filter_icon" viewBox="0 0 20 20" fill="none">
    <title>filter</title>
    <path d="M18.333 2.5H1.666l6.667 7.883v5.45l3.333 1.667v-7.117L18.333 2.5z" stroke="#4199FD" stroke-width="1.5" stroke-linecap="round" stroke-linejoin="round"/>
</symbol>
<symbol id="frm_views_sort_icon" viewBox="0 0 20 20" fill="none">
    <title>filter</title>
    <path d="M16.667 10H8.334M16.667 5H3.334M16.667 15h-3.333" stroke="#4199FD" stroke-width="1.5" stroke-linecap="round" stroke-linejoin="round"/>
</symbol>
<symbol id="frm_views_checkmark_icon" viewBox="0 0 16 12" fill="none">
    <title>checkmark</title>
    <path d="M5.434 11.732l-5.2-5.2a.8.8 0 010-1.132L1.366 4.27a.8.8 0 011.131 0L6 7.772 13.503.269a.8.8 0 011.131 0L15.766 1.4a.8.8 0 010 1.131l-9.2 9.2a.8.8 0 01-1.132 0z" fill="#0DA63C"/>
</symbol>
<symbol id="frm_views_circle_more_icon" viewBox="0 0 36 36" fill="none">
    <title>circle-more</title>
    <path d="M18 33c8.284 0 15-6.716 15-15 0-8.284-6.716-15-15-15C9.716 3 3 9.716 3 18c0 8.284 6.716 15 15 15z" stroke="#fff" stroke-width="2" stroke-linecap="round" stroke-linejoin="round"/><path d="M18.46 19.139a1 1 0 100-2 1 1 0 000 2zM25.46 19.139a1 1 0 100-2 1 1 0 000 2zM11.46 19.139a1 1 0 100-2 1 1 0 000 2z" stroke="#fff" stroke-width="2" stroke-linecap="round" stroke-linejoin="round"/>
</symbol>
<symbol id="frm_views_circle_plus_icon" viewBox="0 0 36 36" fill="none">
    <title>circle-plus</title>
    <path d="M18 33c8.284 0 15-6.716 15-15 0-8.284-6.716-15-15-15C9.716 3 3 9.716 3 18c0 8.284 6.716 15 15 15zM18 12v12M12 18h12" stroke="#fff" stroke-width="2" stroke-linecap="round" stroke-linejoin="round"/>
</symbol>
<symbol id="frm_views_drag_icon" viewBox="0 0 16 9" fill="none">
    <title>drag-icon</title>
    <path d="M9.777 2.707V.849C9.777.38 9.417 0 8.975 0h-1.95c-.444 0-.803.38-.803.849v1.858c0 .469.36.849.803.849h1.95c.443 0 .802-.38.802-.85zM15.996 2.707V.849c0-.469-.36-.849-.803-.849h-1.95c-.443 0-.803.38-.803.849v1.858c0 .469.36.849.803.849h1.95c.444 0 .803-.38.803-.85zM3.556 2.707V.849C3.556.38 3.196 0 2.753 0H.803C.36 0 0 .38 0 .849v1.858c0 .469.36.849.803.849h1.95c.443 0 .803-.38.803-.85zM9.777 8.04V6.182c0-.468-.36-.849-.802-.849h-1.95c-.444 0-.803.38-.803.85V8.04c0 .469.36.85.803.85l1.95-.001c.443 0 .802-.38.802-.849zM15.996 8.04V6.182c0-.468-.36-.849-.803-.849h-1.95c-.443 0-.803.38-.803.85V8.04c0 .469.36.85.803.85l1.95-.001c.444 0 .803-.38.803-.849zM3.556 8.04V6.182c0-.468-.36-.849-.803-.849H.803c-.443 0-.803.38-.803.85V8.04c0 .469.36.85.803.85l1.95-.001c.443 0 .803-.38.803-.849z" fill="#fff"/>
</symbol>
<symbol id="frm_views_droplet_icon" viewBox="0 0 20 20" fill="none">
    <title>droplet</title>
    <path d="M10 2.242l4.717 4.717a6.667 6.667 0 11-9.425 0L10 2.242z" stroke="#fff" stroke-width="1.5" stroke-linecap="round" stroke-linejoin="round"/>
</symbol>
<symbol id="frm_views_edit_icon" viewBox="0 0 20 20" fill="none">
    <title>edit</title>
    <path d="M14.167 2.5A2.357 2.357 0 0117.5 5.835L6.25 17.084l-4.583 1.25 1.25-4.583L14.167 2.5z" stroke="#fff" stroke-width="1.5" stroke-linecap="round" stroke-linejoin="round"/>
</symbol>
<symbol id="frm_views_layout_builder_icon" viewBox="0 0 20 20" fill="none">
    <title>layout-builder</title>
    <rect x="1" y="2" width="4.667" height="8" rx="1" fill="#fff"/><rect x="7.666" y="2" width="4.667" height="8" rx="1" fill="#fff"/><rect x="14.334" y="2" width="4.667" height="8" rx="1" fill="#fff"/><rect x="1" y="12" width="18" height="7" rx="1" fill="#fff"/>
</symbol>
<symbol id="frm_views_plus_circle_icon" viewBox="0 0 24 24" fill="none">
    <title>plus-circle</title>
    <g opacity=".5" stroke="#282F36" stroke-width="2" stroke-linecap="round" stroke-linejoin="round"><path d="M12 22c5.523 0 10-4.477 10-10S17.523 2 12 2 2 6.477 2 12s4.477 10 10 10zM12 8v8M8 12h8"/></g>
</symbol>
<symbol id="frm_views_trash_can_icon" viewBox="0 0 42 42" fill="none">
    <title>trash-can</title>
    <rect width="42" height="42" rx="21" fill="#282F36" fill-opacity=".2"/><g ><path d="M27.5 14h-3.75l-.294-.584a.75.75 0 00-.672-.416h-3.572a.742.742 0 00-.668.416L18.25 14H14.5a.5.5 0 00-.5.5v1a.5.5 0 00.5.5h13a.5.5 0 00.5-.5v-1a.5.5 0 00-.5-.5zM15.662 27.594A1.5 1.5 0 0017.16 29h7.682a1.5 1.5 0 001.496-1.406L27 17H15l.662 10.594z" fill="#fff"/></g><defs><clipPath id="clip0"><path fill="#fff" transform="translate(14 13)" d="M0 0h14v16H0z"/></clipPath></defs>
</symbol>
<symbol id="frm_views_trash_icon" viewBox="0 0 14 16" fill="none">
    <title>trash</title>
    <path d="M13.5 1H9.75L9.456.416A.75.75 0 008.784 0H5.212a.741.741 0 00-.668.416L4.25 1H.5a.5.5 0 00-.5.5v1a.5.5 0 00.5.5h13a.5.5 0 00.5-.5v-1a.5.5 0 00-.5-.5zM1.662 14.594A1.5 1.5 0 003.16 16h7.682a1.5 1.5 0 001.497-1.406L13 4H1l.663 10.594z" fill="#fff"/>
</symbol>
<symbol id="frm_views_coming_soon_table" viewBox="0 0 37 37" fill="none">
    <title>table</title>
    <path d="M31.814 13a1.311 1.311 0 00-1.146-.666c-.492 0-.922.266-1.148.666-.12.2-.186.426-.186.666v6h-4.666V15A1.335 1.335 0 0022 15v4.666h-4.666V15a1.335 1.335 0 00-2.668 0v4.666H10V15a1.334 1.334 0 10-2.666 0v4.666H2.666v-6c0-.24-.066-.466-.186-.666a1.311 1.311 0 00-1.146-.666c-.494 0-.92.266-1.146.666-.122.2-.188.426-.188.666v18c0 2.2 1.8 4 4 4h24c2.2 0 4-1.8 4-4v-18c0-.24-.066-.466-.186-.666zm-2.48 9.334v4h-4.666v-4h4.666zm-7.334 0v4h-4.666v-4H22zM17.334 29H22v4h-4.666v-4zm-2.668 4H10v-4h4.666v4zm0-10.666v4H10v-4h4.666zm-7.332 0v4H2.666v-4h4.668zm-4.668 9.332V29h4.666v4H4c-.734 0-1.334-.6-1.334-1.334zM28 33h-3.334v-4h4.666v2.666A1.335 1.335 0 0128 33z" fill="#B3C3DA"/><path d="M28 6.334H4c-2.2 0-4 1.8-4 4v5.334h32v-5.334c0-2.2-1.8-4-4-4z" fill="#7388A6"/><path d="M23.7 11.854l.582 1.16.58-1.16 1.834-3.659 3.658-1.833 1.16-.58-1.16-.582-3.658-1.833L24.863-.29l-.581-1.16-.581 1.16-1.833 3.658L18.209 5.2l-1.16.581 1.16.581 3.659 1.833 1.833 3.659zm10.413 6.937l1.06-2.119 2.118-1.06 1.163-.58-1.163-.582-2.118-1.06-1.06-2.118-.581-1.163-.582 1.163-1.059 2.118-2.119 1.06-1.162.581 1.162.582 2.119 1.059 1.06 2.119.58 1.162.582-1.162z" fill="#FFB72D" stroke="#fff" stroke-width="1.3"/>
</symbol>
<symbol id="frm_views_coming_soon_calendar" viewBox="0 0 37 37" fill="none">
    <title>calendar</title>
    <path d="M27.125 8.875H3.875A3.879 3.879 0 000 12.75v19.375A3.879 3.879 0 003.875 36h23.25A3.879 3.879 0 0031 32.125V12.75a3.879 3.879 0 00-3.875-3.875zm1.292 23.25c0 .713-.58 1.292-1.292 1.292H3.875c-.713 0-1.292-.58-1.292-1.292V17.968h25.832v14.157h.002z" fill="#7389A6"/><path d="M7.751 5H6.46c-.713 0-1.292.578-1.292 1.292v5.168c0 .712.577 1.292 1.292 1.292H7.75c.713 0 1.292-.578 1.292-1.292V6.292C9.043 5.578 8.463 5 7.751 5zM24.542 5h-1.293c-.712 0-1.292.578-1.292 1.292v5.168c0 .712.58 1.29 1.292 1.29h1.293c.712 0 1.292-.578 1.292-1.292V6.292A1.293 1.293 0 0024.542 5z" fill="#B3C3DA"/><path d="M16.2 36.854l.581 1.16.581-1.16 1.833-3.659 3.659-1.833 1.16-.58-1.16-.582-3.659-1.833-1.833-3.658-.58-1.16-.582 1.16-1.833 3.658L10.71 30.2l-1.16.581 1.16.581 3.658 1.833 1.833 3.659zm14.413-1.063l1.059-2.119 2.119-1.06 1.162-.58-1.162-.582-2.119-1.06-1.06-2.118-.58-1.163-.582 1.163-1.06 2.119-2.118 1.059-1.163.581 1.163.582 2.119 1.059 1.059 2.119.581 1.162.582-1.162z" fill="#FFB72D" stroke="#fff" stroke-width="1.3"/>
</symbol>
<symbol id="frm_views_grid_icon" viewBox="0 0 10 10" fill="none">
    <title>grid</title>
    <path d="M5.765 1.155h3.214c.222 0 .402.18.402.402v2.678c0 .222-.18.402-.402.402H5.765a.402.402 0 01-.402-.402V1.557c0-.222.18-.402.402-.402zm-1.34 0H1.212a.402.402 0 00-.401.402v2.678c0 .222.18.402.401.402h3.215c.222 0 .401-.18.401-.402V1.557a.402.402 0 00-.401-.402zM.81 5.575v2.678c0 .222.18.402.401.402h3.215c.222 0 .401-.18.401-.402V5.574a.402.402 0 00-.401-.401H1.21a.402.402 0 00-.401.401zm4.955 3.08h3.214c.222 0 .402-.18.402-.402V5.574a.402.402 0 00-.402-.401H5.765a.402.402 0 00-.402.401v2.679c0 .222.18.402.402.402z" fill="#fff"/>
</symbol>
<symbol id="frm_views_table_icon" viewBox="0 0 10 10" fill="none">
    <title>table</title>
    <path d="M8.578 1.25H1.613a.804.804 0 00-.803.804v5.892c0 .444.36.804.803.804h6.965c.443 0 .803-.36.803-.804V2.054a.804.804 0 00-.803-.804zM4.56 7.679H1.88V6.07H4.56V7.68zM4.56 5H1.88V3.393H4.56V5zm3.75 2.679H5.63V6.07H8.31V7.68zM8.31 5H5.63V3.393H8.31V5z" fill="#fff"/>
</symbol>
<symbol id="frm_toggle_border_radius_options_icon" viewBox="0 0 22 22" fill="none">
    <title>border radius options</title>
   <path d="M7.25 1H4a3 3 0 00-3 3v3.25M21 7.25V4a3 3 0 00-3-3h-3.25M1 14.75V18a3 3 0 003 3h3.25M14.75 21H18a3 3 0 003-3v-3.25" stroke="#545F6E" stroke-linecap="round" stroke-linejoin="round"/>
</symbol>
<symbol id="frm_border_radius_corner_icon" viewBox="0 0 8 8" fill="none">
    <title>border radius corner</title>
    <path d="M.75 7H4a3 3 0 003-3V.75" stroke="#545F6E" stroke-linecap="round" stroke-linejoin="round"/>
</symbol>
<symbol id="frm_switch_to_classic_mode_icon" viewBox="0 0 20 20" fill="none">
    <title>classic view</title>
    <path d="M13.334 15l5-5-5-5M6.667 5l-5 5 5 5" stroke="#4199FD" stroke-width="1.5" stroke-linecap="round" stroke-linejoin="round"/>
</symbol>
<symbol id="frm_classic_view_icon" viewBox="0 0 16 16" fill="none">
    <title>classic view</title>
    <path d="M10.667 12l4-4-4-4M5.333 4l-4 4 4 4" stroke="#fff" stroke-width="2" stroke-linecap="round" stroke-linejoin="round"/>
</symbol>
</defs>
</svg>